{"asset":{"version":"2.0","generator":"Blockbench 5.1.4 glTF exporter"},"scenes":[{"nodes":[0,1],"name":"blockbench_export"}],"scene":0,"nodes":[{"name":"body","mesh":0},{"translation":[-0.4375,0,0],"name":"face button","mesh":1}],"bufferViews":[{"buffer":0,"byteOffset":0,"byteLength":1152,"target":34962,"byteStride":12},{"buffer":0,"byteOffset":1152,"byteLength":1152,"target":34962,"byteStride":12},{"buffer":0,"byteOffset":2304,"byteLength":768,"target":34962,"byteStride":8},{"buffer":0,"byteOffset":3072,"byteLength":264,"target":34963},{"buffer":0,"byteOffset":3336,"byteLength":1152,"target":34962,"byteStride":12},{"buffer":0,"byteOffset":4488,"byteLength":1152,"target":34962,"byteStride":12},{"buffer":0,"byteOffset":5640,"byteLength":768,"target":34962,"byteStride":8},{"buffer":0,"byteOffset":6408,"byteLength":264,"target":34963}],"buffers":[{"byteLength":6672,"uri":"data:application/octet-stream;base64,"}],"accessors":[{"bufferView":0,"componentType":5126,"count":96,"max":[0.5,1,0.5],"min":[-0.5,0,-0.5],"type":"VEC3"},{"bufferView":1,"componentType":5126,"count":96,"max":[1,1,1],"min":[-1,-1,-1],"type":"VEC3"},{"bufferView":2,"componentType":5126,"count":96,"max":[0.7261679768562317,0.78125],"min":[0,0],"type":"VEC2"},{"bufferView":3,"componentType":5123,"count":132,"max":[95],"min":[0],"type":"SCALAR"},{"bufferView":4,"componentType":5126,"count":96,"max":[0.25,0.9375,0.4375],"min":[-0.25,0.0625,-0.4375],"type":"VEC3"},{"bufferView":5,"componentType":5126,"count":96,"max":[1,1,1],"min":[-1,-1,-1],"type":"VEC3"},{"bufferView":6,"componentType":5126,"count":96,"max":[0.59375,0.6640625],"min":[0,0],"type":"VEC2"},{"bufferView":7,"componentType":5123,"count":132,"max":[95],"min":[0],"type":"SCALAR"}],"materials":[{"pbrMetallicRoughness":{"metallicFactor":0,"roughnessFactor":1,"baseColorTexture":{"index":0}},"alphaMode":"MASK","alphaCutoff":0.05,"doubleSided":true},{"pbrMetallicRoughness":{"metallicFactor":0,"roughnessFactor":1,"baseColorTexture":{"index":1}},"alphaMode":"MASK","alphaCutoff":0.05,"doubleSided":true}],"textures":[{"sampler":0,"source":0,"name":"body"},{"sampler":1,"source":1,"name":"face_ID"}],"samplers":[{"magFilter":9728,"minFilter":9728,"wrapS":33071,"wrapT":33071},{"magFilter":9728,"minFilter":9728,"wrapS":33071,"wrapT":33071}],"images":[{"mimeType":"image/png","uri":"data:image/png;base64,"},{"mimeType":"image/png","uri":"data:image/png;base64,"}],"meshes":[{"primitives":[{"mode":4,"attributes":{"POSITION":0,"NORMAL":1,"TEXCOORD_0":2},"indices":3,"material":0}]},{"primitives":[{"mode":4,"attributes":{"POSITION":4,"NORMAL":5,"TEXCOORD_0":6},"indices":7,"material":1}]}]}